<svg width="1530" height="280" viewBox="0 0 1530 280" fill="none" xmlns="http://www.w3.org/2000/svg">
<mask id="path-1-outside-1_92_7" maskUnits="userSpaceOnUse" x="-28" y="0" width="1612" height="354" fill="black">
<rect fill="white" x="-28" width="1612" height="354"/>
<path d="M277.422 229C270.922 307.5 215.922 352 129.922 352C25.4219 352 -26.5781 283 -26.5781 177C-26.5781 67.5 28.4219 1.49998 135.922 1.49998C177.422 1.49998 210.922 11.5 236.422 32.5C260.422 54 273.922 83.5 277.422 120.5H235.422C220.422 120.5 209.422 113.5 202.922 100C191.422 75.5 168.922 63 135.922 63C71.4219 63 42.9219 108.5 42.9219 177C42.9219 243.5 70.4219 290.5 133.922 290.5C177.422 290.5 202.422 266.5 209.922 229H277.422ZM260.895 7H295.395C317.395 7 327.895 18 327.395 39.5V59H260.895V7ZM260.895 82.5H295.395C316.895 82.5 327.395 93 327.395 114.5V347H260.895V82.5ZM540.398 347H506.398C484.398 345.5 473.398 335 473.398 314V178C471.898 150.5 456.898 137 427.398 137C397.898 137 382.898 150.5 382.398 178V347H314.898V191.5C314.898 116 352.898 78.5 428.398 78.5C503.898 78.5 540.898 116 540.398 191.5V347ZM753.77 266C739.27 322 703.27 353 638.27 353C558.27 350.5 518.27 304 518.27 214C518.27 124 558.77 79 639.27 78.5C723.27 78.5 762.77 130 757.77 233.5H586.77C589.27 274 606.77 294.5 639.27 294.5C654.77 294.5 669.27 288 682.27 275.5C688.27 269 695.77 266 704.77 266H753.77ZM638.27 133C609.77 133 592.77 151 587.77 186H687.27C683.27 151 666.77 133 638.27 133ZM1017.32 243.5C1017.32 314 966.824 347 893.324 347H738.824V43.5C738.824 24 754.324 7 773.824 7H898.824C962.824 7 1005.32 32.5 1005.32 93C1005.32 129 990.824 150.5 964.324 163.5C997.824 176.5 1017.32 198.5 1017.32 243.5ZM935.324 102C935.324 73.5 915.824 66 884.324 66H807.324V139H885.324C912.824 139 935.324 130.5 935.324 102ZM943.824 241.5C943.824 206.5 923.324 196.5 887.324 196.5H807.324V285.5H888.324C922.824 285.5 943.824 275.5 943.824 241.5ZM999.371 7H1033.87C1055.87 7 1066.37 18 1065.87 39.5V59H999.371V7ZM999.371 82.5H1033.87C1055.37 82.5 1065.87 93 1065.87 114.5V347H999.371V82.5ZM1159.88 97C1159.88 116 1145.38 130 1126.88 130H1119.88V276.5C1119.88 287.5 1126.38 293.5 1139.38 293.5H1159.88V344C1138.38 346 1114.88 346 1089.88 343.5C1064.88 341 1052.88 325.5 1053.38 296V7H1087.88C1105.38 7 1119.88 23 1119.88 40.5V82.5H1159.88V97ZM1371.15 266C1356.65 322 1320.65 353 1255.65 353C1175.65 350.5 1135.65 304 1135.65 214C1135.65 124 1176.15 79 1256.65 78.5C1340.65 78.5 1380.15 130 1375.15 233.5H1204.15C1206.65 274 1224.15 294.5 1256.65 294.5C1272.15 294.5 1286.65 288 1299.65 275.5C1305.65 269 1313.15 266 1322.15 266H1371.15ZM1255.65 133C1227.15 133 1210.15 151 1205.15 186H1304.65C1300.65 151 1284.15 133 1255.65 133ZM1416.71 260C1418.21 289 1439.21 299 1471.71 299C1499.71 299 1513.71 291 1513.71 274C1513.71 260.5 1490.71 249.5 1445.21 241.5C1386.71 231 1356.71 205 1356.21 163.5C1356.21 106.5 1401.21 79.5 1461.71 78.5C1495.71 78.5 1522.71 86 1542.71 101C1562.21 116.5 1572.71 138 1574.21 165.5H1532.21C1516.71 165 1506.71 159.5 1502.71 149C1498.21 137.5 1484.71 131 1462.71 131C1436.71 131 1423.71 138 1423.71 151.5C1423.71 165 1440.71 175.5 1475.21 182C1520.21 191 1549.71 202.5 1564.21 216C1576.71 229 1582.71 245 1582.71 263C1582.71 328 1531.71 352 1461.71 352C1424.71 352 1396.71 344 1378.71 328.5C1358.71 313.5 1348.71 290.5 1348.71 260H1416.71Z"/>
</mask>
<path d="M277.422 229C270.922 307.5 215.922 352 129.922 352C25.4219 352 -26.5781 283 -26.5781 177C-26.5781 67.5 28.4219 1.49998 135.922 1.49998C177.422 1.49998 210.922 11.5 236.422 32.5C260.422 54 273.922 83.5 277.422 120.5H235.422C220.422 120.5 209.422 113.5 202.922 100C191.422 75.5 168.922 63 135.922 63C71.4219 63 42.9219 108.5 42.9219 177C42.9219 243.5 70.4219 290.5 133.922 290.5C177.422 290.5 202.422 266.5 209.922 229H277.422ZM260.895 7H295.395C317.395 7 327.895 18 327.395 39.5V59H260.895V7ZM260.895 82.5H295.395C316.895 82.5 327.395 93 327.395 114.5V347H260.895V82.5ZM540.398 347H506.398C484.398 345.5 473.398 335 473.398 314V178C471.898 150.5 456.898 137 427.398 137C397.898 137 382.898 150.5 382.398 178V347H314.898V191.5C314.898 116 352.898 78.5 428.398 78.5C503.898 78.5 540.898 116 540.398 191.5V347ZM753.77 266C739.27 322 703.27 353 638.27 353C558.27 350.5 518.27 304 518.27 214C518.27 124 558.77 79 639.27 78.5C723.27 78.5 762.77 130 757.77 233.5H586.77C589.27 274 606.77 294.5 639.27 294.5C654.77 294.5 669.27 288 682.27 275.5C688.27 269 695.77 266 704.77 266H753.77ZM638.27 133C609.77 133 592.77 151 587.77 186H687.27C683.27 151 666.77 133 638.27 133ZM1017.32 243.5C1017.32 314 966.824 347 893.324 347H738.824V43.5C738.824 24 754.324 7 773.824 7H898.824C962.824 7 1005.32 32.5 1005.32 93C1005.32 129 990.824 150.5 964.324 163.5C997.824 176.5 1017.32 198.5 1017.32 243.5ZM935.324 102C935.324 73.5 915.824 66 884.324 66H807.324V139H885.324C912.824 139 935.324 130.5 935.324 102ZM943.824 241.5C943.824 206.5 923.324 196.5 887.324 196.5H807.324V285.5H888.324C922.824 285.5 943.824 275.5 943.824 241.5ZM999.371 7H1033.87C1055.87 7 1066.37 18 1065.87 39.5V59H999.371V7ZM999.371 82.5H1033.87C1055.37 82.5 1065.87 93 1065.87 114.5V347H999.371V82.5ZM1159.88 97C1159.88 116 1145.38 130 1126.88 130H1119.88V276.5C1119.88 287.5 1126.38 293.5 1139.38 293.5H1159.88V344C1138.38 346 1114.88 346 1089.88 343.5C1064.88 341 1052.88 325.5 1053.38 296V7H1087.88C1105.38 7 1119.88 23 1119.88 40.5V82.5H1159.88V97ZM1371.15 266C1356.65 322 1320.65 353 1255.65 353C1175.65 350.5 1135.65 304 1135.65 214C1135.65 124 1176.15 79 1256.65 78.5C1340.65 78.5 1380.15 130 1375.15 233.5H1204.15C1206.65 274 1224.15 294.5 1256.65 294.5C1272.15 294.5 1286.65 288 1299.65 275.5C1305.65 269 1313.15 266 1322.15 266H1371.15ZM1255.65 133C1227.15 133 1210.15 151 1205.15 186H1304.65C1300.65 151 1284.15 133 1255.65 133ZM1416.71 260C1418.21 289 1439.21 299 1471.71 299C1499.71 299 1513.71 291 1513.71 274C1513.71 260.5 1490.71 249.5 1445.21 241.5C1386.71 231 1356.71 205 1356.21 163.5C1356.21 106.5 1401.21 79.5 1461.71 78.5C1495.71 78.5 1522.71 86 1542.71 101C1562.21 116.5 1572.71 138 1574.21 165.5H1532.21C1516.71 165 1506.71 159.5 1502.71 149C1498.21 137.5 1484.71 131 1462.71 131C1436.71 131 1423.71 138 1423.71 151.5C1423.71 165 1440.71 175.5 1475.21 182C1520.21 191 1549.71 202.5 1564.21 216C1576.71 229 1582.71 245 1582.71 263C1582.71 328 1531.71 352 1461.71 352C1424.71 352 1396.71 344 1378.71 328.5C1358.71 313.5 1348.71 290.5 1348.71 260H1416.71Z" fill="#F3F7CA"/>
<path d="M277.422 229L278.418 229.083L278.508 228H277.422V229ZM236.422 32.5L237.089 31.7552L237.074 31.7413L237.058 31.7281L236.422 32.5ZM277.422 120.5V121.5H278.521L278.417 120.406L277.422 120.5ZM202.922 100L202.017 100.425L202.021 100.434L202.922 100ZM209.922 229V228H209.102L208.941 228.804L209.922 229ZM276.425 228.917C273.194 267.94 257.922 298.426 232.847 319.167C207.759 339.919 172.755 351 129.922 351V353C173.089 353 208.585 341.831 234.122 320.708C259.672 299.574 275.15 268.56 278.418 229.083L276.425 228.917ZM129.922 351C77.9057 351 39.0821 333.837 13.2446 303.6C-12.6138 273.339 -25.5781 229.851 -25.5781 177H-27.5781C-27.5781 230.149 -14.5424 274.161 11.7241 304.9C38.0116 335.663 77.438 353 129.922 353V351ZM-25.5781 177C-25.5781 122.405 -11.8669 78.802 15.1024 48.8567C42.0566 18.9283 82.3825 2.49998 135.922 2.49998V0.499978C81.9612 0.499978 41.0372 17.0716 13.6163 47.5183C-13.7893 77.948 -27.5781 122.095 -27.5781 177H-25.5781ZM135.922 2.49998C177.262 2.49998 210.514 12.4593 235.786 33.2719L237.058 31.7281C211.33 10.5407 177.582 0.499978 135.922 0.499978V2.49998ZM235.755 33.2448C259.534 54.5468 272.945 83.7956 276.426 120.594L278.417 120.406C274.898 83.2044 261.31 53.4532 237.089 31.7552L235.755 33.2448ZM277.422 119.5H235.422V121.5H277.422V119.5ZM235.422 119.5C228.082 119.5 221.773 117.789 216.519 114.467C211.264 111.145 207.005 106.175 203.823 99.5662L202.021 100.434C205.339 107.325 209.83 112.605 215.45 116.158C221.071 119.711 227.762 121.5 235.422 121.5V119.5ZM203.827 99.5751C197.993 87.1462 189.351 77.733 177.968 71.4374C166.597 65.148 152.545 62 135.922 62V64C152.299 64 165.997 67.1019 177 73.1876C187.993 79.267 196.351 88.3538 202.017 100.425L203.827 99.5751ZM135.922 62C103.411 62 79.8446 73.4826 64.4389 93.7065C49.0675 113.885 41.9219 142.634 41.9219 177H43.9219C43.9219 142.866 51.0262 114.615 66.0299 94.9185C80.9992 75.2674 103.933 64 135.922 64V62ZM41.9219 177C41.9219 210.365 48.8172 238.982 63.8049 259.281C78.8279 279.629 101.893 291.5 133.922 291.5V289.5C102.45 289.5 80.0158 277.871 65.4139 258.094C50.7766 238.268 43.9219 210.135 43.9219 177H41.9219ZM133.922 291.5C155.861 291.5 173.229 285.444 186.068 274.576C198.902 263.711 207.119 248.115 210.902 229.196L208.941 228.804C205.225 247.385 197.192 262.539 184.776 273.049C172.364 283.556 155.483 289.5 133.922 289.5V291.5ZM209.922 230H277.422V228H209.922V230ZM260.895 7V6H259.895V7H260.895ZM327.395 39.5L326.395 39.4767L326.395 39.4884V39.5H327.395ZM327.395 59V60H328.395V59H327.395ZM260.895 59H259.895V60H260.895V59ZM260.895 82.5V81.5H259.895V82.5H260.895ZM327.395 347V348H328.395V347H327.395ZM260.895 347H259.895V348H260.895V347ZM260.895 8H295.395V6H260.895V8ZM295.395 8C306.242 8 314.061 10.7116 319.117 15.8863C324.173 21.0611 326.641 28.8788 326.395 39.4767L328.394 39.5232C328.648 28.6212 326.117 20.1889 320.547 14.4887C314.978 8.7884 306.547 6 295.395 6V8ZM326.395 39.5V59H328.395V39.5H326.395ZM327.395 58H260.895V60H327.395V58ZM261.895 59V7H259.895V59H261.895ZM260.895 83.5H295.395V81.5H260.895V83.5ZM295.395 83.5C305.996 83.5 313.694 86.0887 318.75 91.1446C323.806 96.2005 326.395 103.898 326.395 114.5H328.395C328.395 103.602 325.733 95.2995 320.164 89.7304C314.595 84.1612 306.293 81.5 295.395 81.5V83.5ZM326.395 114.5V347H328.395V114.5H326.395ZM327.395 346H260.895V348H327.395V346ZM261.895 347V82.5H259.895V347H261.895ZM540.398 347V348H541.398V347H540.398ZM506.398 347L506.33 347.998L506.364 348H506.398V347ZM473.398 178H474.398V177.973L474.397 177.946L473.398 178ZM382.398 178L381.399 177.982L381.398 177.991V178H382.398ZM382.398 347V348H383.398V347H382.398ZM314.898 347H313.898V348H314.898V347ZM540.398 191.5L539.398 191.493V191.5H540.398ZM540.398 346H506.398V348H540.398V346ZM506.466 346.002C495.597 345.261 487.617 342.307 482.352 337.101C477.1 331.909 474.398 324.328 474.398 314H472.398C472.398 324.672 475.197 332.841 480.945 338.524C486.68 344.193 495.2 347.239 506.33 347.998L506.466 346.002ZM474.398 314V178H472.398V314H474.398ZM474.397 177.946C473.638 164.028 469.451 153.488 461.565 146.442C453.689 139.405 442.286 136 427.398 136V138C442.011 138 452.858 141.345 460.232 147.933C467.596 154.512 471.659 164.472 472.4 178.054L474.397 177.946ZM427.398 136C412.514 136 401.105 139.404 393.351 146.447C385.583 153.504 381.652 164.057 381.399 177.982L383.398 178.018C383.645 164.443 387.464 154.496 394.696 147.928C401.942 141.346 412.783 138 427.398 138V136ZM381.398 178V347H383.398V178H381.398ZM382.398 346H314.898V348H382.398V346ZM315.898 347V191.5H313.898V347H315.898ZM315.898 191.5C315.898 153.906 325.358 125.956 344.041 107.397C362.724 88.8367 390.801 79.5 428.398 79.5V77.5C390.496 77.5 361.823 86.9133 342.631 105.978C323.439 125.044 313.898 153.594 313.898 191.5H315.898ZM428.398 79.5C465.997 79.5 493.819 88.8368 512.188 107.391C530.558 125.946 539.647 153.894 539.398 191.493L541.398 191.507C541.649 153.606 532.489 125.054 513.609 105.984C494.728 86.9132 466.3 77.5 428.398 77.5V79.5ZM539.398 191.5V347H541.398V191.5H539.398ZM753.77 266L754.738 266.251L755.061 265H753.77V266ZM638.27 353L638.238 354L638.254 354H638.27V353ZM639.27 78.5V77.5L639.263 77.5L639.27 78.5ZM757.77 233.5V234.5H758.722L758.768 233.548L757.77 233.5ZM586.77 233.5V232.5H585.706L585.771 233.562L586.77 233.5ZM682.27 275.5L682.963 276.221L682.984 276.2L683.004 276.178L682.27 275.5ZM587.77 186L586.78 185.859L586.617 187H587.77V186ZM687.27 186V187H688.39L688.263 185.886L687.27 186ZM752.801 265.749C745.59 293.599 733.061 315.132 714.343 329.711C695.625 344.29 670.61 352 638.27 352V354C670.929 354 696.414 346.21 715.572 331.289C734.728 316.368 747.449 294.401 754.738 266.251L752.801 265.749ZM638.301 352C598.491 350.756 568.792 338.575 549.027 315.659C529.243 292.722 519.27 258.87 519.27 214H517.27C517.27 259.13 527.296 293.528 547.512 316.966C567.747 340.425 598.048 352.744 638.238 354L638.301 352ZM519.27 214C519.27 169.13 529.367 135.662 549.327 113.354C569.269 91.066 599.209 79.7488 639.276 79.5L639.263 77.5C598.83 77.7512 568.27 89.184 547.837 112.021C527.422 134.838 517.27 168.87 517.27 214H519.27ZM639.27 79.5C681.058 79.5 711.593 92.2999 731.1 117.795C750.643 143.337 759.266 181.806 756.771 233.452L758.768 233.548C761.273 181.694 752.646 142.663 732.689 116.58C712.696 90.4501 681.481 77.5 639.27 77.5V79.5ZM757.77 232.5H586.77V234.5H757.77V232.5ZM585.771 233.562C587.028 253.923 592.063 269.421 601.011 279.839C609.99 290.293 622.793 295.5 639.27 295.5V293.5C623.246 293.5 611.049 288.457 602.528 278.536C593.976 268.579 589.011 253.577 587.768 233.438L585.771 233.562ZM639.27 295.5C655.075 295.5 669.814 288.864 682.963 276.221L681.576 274.779C668.725 287.136 654.464 293.5 639.27 293.5V295.5ZM683.004 276.178C688.798 269.902 696.022 267 704.77 267V265C695.517 265 687.741 268.098 681.535 274.822L683.004 276.178ZM704.77 267H753.77V265H704.77V267ZM638.27 132C623.791 132 612.138 136.581 603.482 145.686C594.851 154.765 589.297 168.24 586.78 185.859L588.759 186.141C591.243 168.76 596.688 155.735 604.932 147.064C613.151 138.419 624.248 134 638.27 134V132ZM587.77 187H687.27V185H587.77V187ZM688.263 185.886C686.25 168.268 681.076 154.785 672.692 145.697C664.283 136.582 652.747 132 638.27 132V134C652.292 134 663.256 138.418 671.222 147.053C679.213 155.715 684.29 168.732 686.276 186.114L688.263 185.886ZM738.824 347H737.824V348H738.824V347ZM964.324 163.5L963.884 162.602L961.836 163.607L963.962 164.432L964.324 163.5ZM807.324 66V65H806.324V66H807.324ZM807.324 139H806.324V140H807.324V139ZM807.324 196.5V195.5H806.324V196.5H807.324ZM807.324 285.5H806.324V286.5H807.324V285.5ZM1016.32 243.5C1016.32 278.486 1003.81 304.052 982.271 320.9C960.695 337.777 929.943 346 893.324 346V348C930.205 348 961.453 339.723 983.503 322.475C1005.59 305.198 1018.32 279.014 1018.32 243.5H1016.32ZM893.324 346H738.824V348H893.324V346ZM739.824 347V43.5H737.824V347H739.824ZM739.824 43.5C739.824 24.4971 754.93 8 773.824 8V6C753.718 6 737.824 23.5029 737.824 43.5H739.824ZM773.824 8H898.824V6H773.824V8ZM898.824 8C930.716 8 957.093 14.3576 975.475 28.1131C993.807 41.8315 1004.32 63.0107 1004.32 93H1006.32C1006.32 62.4892 995.591 40.6685 976.673 26.5119C957.805 12.3924 930.932 6 898.824 6V8ZM1004.32 93C1004.32 110.866 1000.73 125.051 993.905 136.358C987.086 147.662 976.998 156.169 963.884 162.602L964.765 164.398C978.15 157.831 988.562 149.088 995.618 137.392C1002.67 125.699 1006.32 111.134 1006.32 93H1004.32ZM963.962 164.432C980.599 170.888 993.659 179.54 1002.57 192.079C1011.48 204.615 1016.32 221.145 1016.32 243.5H1018.32C1018.32 220.855 1013.42 203.884 1004.2 190.921C994.99 177.96 981.549 169.112 964.686 162.568L963.962 164.432ZM936.324 102C936.324 87.4851 931.333 78.1203 922.162 72.4614C913.098 66.8691 900.106 65 884.324 65V67C900.042 67 912.55 68.8808 921.112 74.1635C929.565 79.3797 934.324 88.0149 934.324 102H936.324ZM884.324 65H807.324V67H884.324V65ZM806.324 66V139H808.324V66H806.324ZM807.324 140H885.324V138H807.324V140ZM885.324 140C899.144 140 911.87 137.87 921.168 132.035C930.546 126.149 936.324 116.565 936.324 102H934.324C934.324 115.935 928.852 124.851 920.105 130.34C911.279 135.88 899.004 138 885.324 138V140ZM944.824 241.5C944.824 223.796 939.627 212.184 929.655 205.061C919.764 197.996 905.37 195.5 887.324 195.5V197.5C905.279 197.5 919.134 200.004 928.493 206.689C937.771 213.316 942.824 224.204 942.824 241.5H944.824ZM887.324 195.5H807.324V197.5H887.324V195.5ZM806.324 196.5V285.5H808.324V196.5H806.324ZM807.324 286.5H888.324V284.5H807.324V286.5ZM888.324 286.5C905.628 286.5 919.765 284.001 929.588 277.067C939.491 270.077 944.824 258.722 944.824 241.5H942.824C942.824 258.278 937.658 268.923 928.435 275.433C919.134 281.999 905.521 284.5 888.324 284.5V286.5ZM999.371 7V6H998.371V7H999.371ZM1065.87 39.5L1064.87 39.4767L1064.87 39.4884V39.5H1065.87ZM1065.87 59V60H1066.87V59H1065.87ZM999.371 59H998.371V60H999.371V59ZM999.371 82.5V81.5H998.371V82.5H999.371ZM1065.87 347V348H1066.87V347H1065.87ZM999.371 347H998.371V348H999.371V347ZM999.371 8H1033.87V6H999.371V8ZM1033.87 8C1044.72 8 1052.54 10.7116 1057.59 15.8863C1062.65 21.0611 1065.12 28.8788 1064.87 39.4767L1066.87 39.5232C1067.12 28.6212 1064.59 20.1889 1059.02 14.4887C1053.45 8.7884 1045.02 6 1033.87 6V8ZM1064.87 39.5V59H1066.87V39.5H1064.87ZM1065.87 58H999.371V60H1065.87V58ZM1000.37 59V7H998.371V59H1000.37ZM999.371 83.5H1033.87V81.5H999.371V83.5ZM1033.87 83.5C1044.47 83.5 1052.17 86.0887 1057.23 91.1446C1062.28 96.2005 1064.87 103.898 1064.87 114.5H1066.87C1066.87 103.602 1064.21 95.2995 1058.64 89.7304C1053.07 84.1612 1044.77 81.5 1033.87 81.5V83.5ZM1064.87 114.5V347H1066.87V114.5H1064.87ZM1065.87 346H999.371V348H1065.87V346ZM1000.37 347V82.5H998.371V347H1000.37ZM1119.88 130V129H1118.88V130H1119.88ZM1159.88 293.5H1160.88V292.5H1159.88V293.5ZM1159.88 344L1159.97 344.996L1160.88 344.911V344H1159.88ZM1089.88 343.5L1089.78 344.495L1089.88 343.5ZM1053.38 296L1054.37 296.017L1054.38 296.008V296H1053.38ZM1053.38 7V6H1052.38V7H1053.38ZM1119.88 82.5H1118.88V83.5H1119.88V82.5ZM1159.88 82.5H1160.88V81.5H1159.88V82.5ZM1158.88 97C1158.88 115.438 1144.83 129 1126.88 129V131C1145.92 131 1160.88 116.562 1160.88 97H1158.88ZM1126.88 129H1119.88V131H1126.88V129ZM1118.88 130V276.5H1120.88V130H1118.88ZM1118.88 276.5C1118.88 282.2 1120.57 286.759 1124.09 289.874C1127.59 292.97 1132.74 294.5 1139.38 294.5V292.5C1133.01 292.5 1128.41 291.03 1125.41 288.376C1122.43 285.741 1120.88 281.8 1120.88 276.5H1118.88ZM1139.38 294.5H1159.88V292.5H1139.38V294.5ZM1158.88 293.5V344H1160.88V293.5H1158.88ZM1159.78 343.004C1138.35 344.998 1114.91 344.999 1089.97 342.505L1089.78 344.495C1114.84 347.001 1138.4 347.002 1159.97 344.996L1159.78 343.004ZM1089.97 342.505C1077.67 341.274 1068.71 336.865 1062.85 329.265C1056.98 321.639 1054.13 310.647 1054.37 296.017L1052.38 295.983C1052.12 310.853 1055.02 322.361 1061.27 330.485C1067.54 338.635 1077.08 343.226 1089.78 344.495L1089.97 342.505ZM1054.38 296V7H1052.38V296H1054.38ZM1053.38 8H1087.88V6H1053.38V8ZM1087.88 8C1104.76 8 1118.88 23.4925 1118.88 40.5H1120.88C1120.88 22.5075 1105.99 6 1087.88 6V8ZM1118.88 40.5V82.5H1120.88V40.5H1118.88ZM1119.88 83.5H1159.88V81.5H1119.88V83.5ZM1158.88 82.5V97H1160.88V82.5H1158.88ZM1371.15 266L1372.12 266.251L1372.44 265H1371.15V266ZM1255.65 353L1255.62 354L1255.64 354H1255.65V353ZM1256.65 78.5V77.5L1256.65 77.5L1256.65 78.5ZM1375.15 233.5V234.5H1376.11L1376.15 233.548L1375.15 233.5ZM1204.15 233.5V232.5H1203.09L1203.15 233.562L1204.15 233.5ZM1299.65 275.5L1300.35 276.221L1300.37 276.2L1300.39 276.178L1299.65 275.5ZM1205.15 186L1204.16 185.859L1204 187H1205.15V186ZM1304.65 186V187H1305.77L1305.65 185.886L1304.65 186ZM1370.18 265.749C1362.97 293.599 1350.44 315.132 1331.73 329.711C1313.01 344.29 1287.99 352 1255.65 352V354C1288.31 354 1313.8 346.21 1332.95 331.289C1352.11 316.368 1364.83 294.401 1372.12 266.251L1370.18 265.749ZM1255.68 352C1215.87 350.756 1186.18 338.575 1166.41 315.659C1146.63 292.722 1136.65 258.87 1136.65 214H1134.65C1134.65 259.13 1144.68 293.528 1164.9 316.966C1185.13 340.425 1215.43 352.744 1255.62 354L1255.68 352ZM1136.65 214C1136.65 169.13 1146.75 135.662 1166.71 113.354C1186.65 91.066 1216.59 79.7488 1256.66 79.5L1256.65 77.5C1216.21 77.7512 1185.65 89.184 1165.22 112.021C1144.8 134.838 1134.65 168.87 1134.65 214H1136.65ZM1256.65 79.5C1298.44 79.5 1328.98 92.2999 1348.48 117.795C1368.03 143.337 1376.65 181.806 1374.15 233.452L1376.15 233.548C1378.66 181.694 1370.03 142.663 1350.07 116.58C1330.08 90.4501 1298.86 77.5 1256.65 77.5V79.5ZM1375.15 232.5H1204.15V234.5H1375.15V232.5ZM1203.15 233.562C1204.41 253.923 1209.45 269.421 1218.39 279.839C1227.37 290.293 1240.18 295.5 1256.65 295.5V293.5C1240.63 293.5 1228.43 288.457 1219.91 278.536C1211.36 268.579 1206.39 253.577 1205.15 233.438L1203.15 233.562ZM1256.65 295.5C1272.46 295.5 1287.2 288.864 1300.35 276.221L1298.96 274.779C1286.11 287.136 1271.85 293.5 1256.65 293.5V295.5ZM1300.39 276.178C1306.18 269.902 1313.4 267 1322.15 267V265C1312.9 265 1305.12 268.098 1298.92 274.822L1300.39 276.178ZM1322.15 267H1371.15V265H1322.15V267ZM1255.65 132C1241.17 132 1229.52 136.581 1220.87 145.686C1212.23 154.765 1206.68 168.24 1204.16 185.859L1206.14 186.141C1208.63 168.76 1214.07 155.735 1222.31 147.064C1230.53 138.419 1241.63 134 1255.65 134V132ZM1205.15 187H1304.65V185H1205.15V187ZM1305.65 185.886C1303.63 168.268 1298.46 154.785 1290.07 145.697C1281.67 136.582 1270.13 132 1255.65 132V134C1269.67 134 1280.64 138.418 1288.6 147.053C1296.6 155.715 1301.67 168.732 1303.66 186.114L1305.65 185.886ZM1416.71 260L1417.71 259.948L1417.66 259H1416.71V260ZM1445.21 241.5L1445.03 242.484L1445.03 242.485L1445.21 241.5ZM1356.21 163.5H1355.21L1355.21 163.512L1356.21 163.5ZM1461.71 78.5V77.5H1461.7L1461.69 77.5001L1461.71 78.5ZM1542.71 101L1543.33 100.217L1543.32 100.208L1543.31 100.2L1542.71 101ZM1574.21 165.5V166.5H1575.26L1575.21 165.446L1574.21 165.5ZM1532.21 165.5L1532.17 166.499L1532.19 166.5H1532.21V165.5ZM1502.71 149L1503.64 148.644L1503.64 148.636L1502.71 149ZM1475.21 182L1475.4 181.019L1475.39 181.017L1475.21 182ZM1564.21 216L1564.93 215.307L1564.91 215.287L1564.89 215.268L1564.21 216ZM1378.71 328.5L1379.36 327.742L1379.33 327.72L1379.31 327.7L1378.71 328.5ZM1348.71 260V259H1347.71V260H1348.71ZM1415.71 260.052C1416.47 274.822 1422.23 284.89 1432.04 291.215C1441.78 297.495 1455.39 300 1471.71 300V298C1455.53 298 1442.38 295.505 1433.12 289.535C1423.93 283.61 1418.44 274.178 1417.71 259.948L1415.71 260.052ZM1471.71 300C1485.77 300 1496.48 297.998 1503.71 293.737C1511.03 289.423 1514.71 282.837 1514.71 274H1512.71C1512.71 282.163 1509.38 288.077 1502.7 292.013C1495.93 296.002 1485.65 298 1471.71 298V300ZM1514.71 274C1514.71 266.611 1508.42 260.24 1496.95 254.784C1485.39 249.289 1468.16 244.52 1445.38 240.515L1445.03 242.485C1467.75 246.48 1484.77 251.211 1496.09 256.591C1507.49 262.01 1512.71 267.889 1512.71 274H1514.71ZM1445.38 240.516C1416.23 235.283 1394.3 226.207 1379.62 213.372C1364.96 200.568 1357.45 183.968 1357.21 163.488L1355.21 163.512C1355.46 184.532 1363.2 201.682 1378.3 214.878C1393.36 228.043 1415.69 237.217 1445.03 242.484L1445.38 240.516ZM1357.21 163.5C1357.21 135.3 1368.32 114.604 1386.87 100.802C1405.45 86.9695 1431.6 79.9978 1461.72 79.4999L1461.69 77.5001C1431.32 78.0022 1404.71 85.0305 1385.67 99.1978C1366.59 113.396 1355.21 134.7 1355.21 163.5H1357.21ZM1461.71 79.5C1495.57 79.5 1522.33 86.9694 1542.11 101.8L1543.31 100.2C1523.08 85.0306 1495.85 77.5 1461.71 77.5V79.5ZM1542.08 101.783C1561.34 117.085 1571.72 138.306 1573.21 165.554L1575.21 165.446C1573.69 137.694 1563.08 115.915 1543.33 100.217L1542.08 101.783ZM1574.21 164.5H1532.21V166.5H1574.21V164.5ZM1532.24 164.501C1516.95 164.007 1507.44 158.615 1503.64 148.644L1501.77 149.356C1505.97 160.385 1516.46 165.993 1532.17 166.499L1532.24 164.501ZM1503.64 148.636C1498.9 136.53 1484.81 130 1462.71 130V132C1484.6 132 1497.51 138.47 1501.78 149.364L1503.64 148.636ZM1462.71 130C1449.65 130 1439.7 131.753 1432.99 135.303C1429.62 137.086 1427.04 139.336 1425.3 142.065C1423.56 144.798 1422.71 147.958 1422.71 151.5H1424.71C1424.71 148.292 1425.48 145.514 1426.99 143.138C1428.5 140.758 1430.8 138.726 1433.92 137.071C1440.21 133.747 1449.77 132 1462.71 132V130ZM1422.71 151.5C1422.71 158.747 1427.29 165.017 1436.01 170.233C1444.72 175.447 1457.73 179.724 1475.02 182.983L1475.39 181.017C1458.19 177.776 1445.45 173.553 1437.03 168.517C1428.62 163.483 1424.71 157.753 1424.71 151.5H1422.71ZM1475.01 182.981C1497.48 187.474 1516.04 192.585 1530.79 198.246C1545.54 203.911 1556.41 210.105 1563.53 216.732L1564.89 215.268C1557.51 208.395 1546.37 202.089 1531.5 196.379C1516.62 190.665 1497.94 185.526 1475.4 181.019L1475.01 182.981ZM1563.49 216.693C1575.8 229.495 1581.71 245.241 1581.71 263H1583.71C1583.71 244.759 1577.62 228.505 1564.93 215.307L1563.49 216.693ZM1581.71 263C1581.71 295.192 1569.1 317.114 1547.91 331.039C1526.64 345.009 1496.62 351 1461.71 351V353C1496.79 353 1527.27 346.991 1549.01 332.711C1570.81 318.386 1583.71 295.808 1583.71 263H1581.71ZM1461.71 351C1424.82 351 1397.1 343.021 1379.36 327.742L1378.05 329.258C1396.31 344.979 1424.59 353 1461.71 353V351ZM1379.31 327.7C1359.62 312.933 1349.71 290.266 1349.71 260H1347.71C1347.71 290.734 1357.8 314.067 1378.11 329.3L1379.31 327.7ZM1348.71 261H1416.71V259H1348.71V261Z" fill="black" mask="url(#path-1-outside-1_92_7)"/>
</svg>
