<svg width="1262" height="314" viewBox="0 0 1262 314" fill="none" xmlns="http://www.w3.org/2000/svg">
<g clip-path="url(#clip0_70_7)">
<path d="M4.22083 148.234L20.7176 141.516L74.4243 203.458L69.3974 121.689L85.7205 115.041L120.352 200.072L109.412 204.527L88.9726 154.342C88.2654 152.606 87.1331 149.715 85.5757 145.671C84.0184 141.626 82.3046 137.308 80.4343 132.716L85.3905 214.311L73.9875 218.955L20.3515 157.186L21.4123 159.791C22.261 161.875 23.5962 165.043 25.418 169.295C27.2625 173.492 28.5935 176.594 29.4107 178.601L49.8502 228.786L38.8524 233.265L4.22083 148.234ZM158.367 176.76C165.275 173.947 168.941 169.417 169.366 163.17C169.814 156.869 168.733 150.516 166.125 144.11C163.767 138.322 160.923 133.991 157.594 131.118C152.335 126.601 146.117 125.805 138.939 128.728C132.572 131.321 128.932 135.638 128.018 141.679C127.104 147.72 128.046 154.175 130.843 161.044C133.531 167.643 137.218 172.552 141.903 175.772C146.589 178.993 152.077 179.322 158.367 176.76ZM135.527 119.522C143.515 116.269 151.353 116.181 159.04 119.259C166.727 122.337 172.677 129.047 176.889 139.388C180.959 149.383 181.892 158.631 179.685 167.133C177.479 175.635 171.263 181.968 161.037 186.133C152.509 189.606 144.566 189.49 137.208 185.783C129.834 182.038 124.166 175.303 120.206 165.579C115.962 155.16 115.226 145.787 117.998 137.459C120.77 129.132 126.613 123.153 135.527 119.522ZM182.333 102.551L219.445 146.283L216.195 88.7599L227.598 84.1156L229.462 155.633L218.348 160.159L170.236 107.478L182.333 102.551ZM236.63 80.7745L247.223 76.4603L272.354 138.164L261.761 142.478L236.63 80.7745ZM227.129 57.4475L237.722 53.1333L242.531 64.9415L231.939 69.2557L227.129 57.4475ZM288.157 57.8313C292.556 56.0396 297.245 55.3448 302.222 55.747C307.184 56.1105 311.414 57.4922 314.911 59.8921C318.267 62.1691 321.142 65.25 323.534 69.1347C325.314 71.7388 327.478 76.1666 330.024 82.418L284.585 100.924C287.34 107.136 290.885 111.586 295.219 114.274C299.538 116.925 304.61 117.063 310.437 114.69C315.878 112.474 319.489 108.911 321.269 104.002C322.272 101.164 322.602 98.2179 322.258 95.1638L332.503 90.991C333.16 93.3778 333.291 96.294 332.894 99.7396C332.521 103.131 331.75 106.099 330.583 108.644C328.676 113.02 325.608 116.699 321.378 119.682C319.122 121.321 316.411 122.784 313.247 124.073C305.529 127.216 297.849 127.083 290.206 123.672C282.547 120.223 276.659 113.443 272.542 103.333C268.487 93.3766 267.895 84.1921 270.767 75.7789C273.639 67.3658 279.436 61.3833 288.157 57.8313ZM315.944 78.502C313.681 74.16 311.227 70.9527 308.584 68.8801C303.685 65.0266 297.897 64.4593 291.222 67.1783C286.437 69.1272 283.131 72.4982 281.304 77.2914C279.461 82.046 279.528 87.1252 281.504 92.5291L315.944 78.502ZM352.415 82.8812C354.138 86.2285 356.091 88.5375 358.273 89.8083C362.264 92.0968 367.502 91.9208 373.984 89.2804C377.843 87.7088 380.901 85.496 383.158 82.6423C385.399 79.7499 385.805 76.5479 384.375 73.0363C383.29 70.3737 381.288 68.8271 378.368 68.3967C376.518 68.1606 373.146 68.3868 368.252 69.0751L359.126 70.3626C353.305 71.2037 348.81 71.3247 345.642 70.7256C340.018 69.7317 336.193 66.7458 334.165 61.7678C331.777 55.9023 331.946 50.2993 334.675 44.9589C337.443 39.6027 342.396 35.4708 349.535 32.5632C358.873 28.7598 366.723 28.7571 373.084 32.555C377.084 34.975 379.862 38.2073 381.42 42.252L371.58 46.2598C370.428 43.9844 368.726 42.1806 366.474 40.8484C362.965 39.0831 358.259 39.4027 352.355 41.8073C348.419 43.4104 345.735 45.3809 344.303 47.7189C342.909 50.0411 342.715 52.4371 343.721 54.9067C344.821 57.608 347.032 59.2267 350.355 59.763C352.292 60.0991 354.914 60.0207 358.223 59.528L365.794 58.4012C374.019 57.1659 379.751 56.8785 382.989 57.5391C388.126 58.5515 391.857 61.9133 394.183 67.6245C396.43 73.1427 396.268 78.7649 393.697 84.4913C391.164 90.2019 385.614 94.8018 377.047 98.2909C367.824 102.047 360.435 102.627 354.878 100.031C349.345 97.3811 345.186 93.0239 342.401 86.9597L352.415 82.8812Z" fill="#11318F"/>
<path d="M297.409 143.003L315.122 144.882L333.162 224.856L367.391 150.427L384.918 152.286L375.233 243.586L363.487 242.34L369.202 188.455C369.4 186.59 369.769 183.508 370.309 179.207C370.849 174.907 371.38 170.292 371.903 165.361L337.694 239.604L325.45 238.305L307.39 158.518L307.094 161.315C306.856 163.552 306.535 166.975 306.13 171.583C305.771 176.154 305.477 179.517 305.249 181.671L299.533 235.556L287.724 234.304L297.409 143.003ZM427.512 180.31C432.235 180.811 436.695 182.415 440.891 185.123C445.092 187.789 448.165 191.006 450.112 194.774C451.994 198.368 453.07 202.442 453.341 206.996C453.679 210.132 453.492 215.057 452.78 221.769L403.991 216.594C403.482 223.37 404.501 228.967 407.049 233.385C409.602 237.762 414.006 240.282 420.263 240.946C426.105 241.566 430.971 240.133 434.86 236.649C437.086 234.623 438.77 232.183 439.91 229.329L450.911 230.495C450.362 232.909 449.098 235.541 447.12 238.39C445.188 241.201 443.105 243.453 440.873 245.143C437.124 248.098 432.681 249.889 427.544 250.517C424.78 250.895 421.7 250.903 418.302 250.543C410.015 249.664 403.311 245.915 398.189 239.296C393.071 232.636 391.088 223.878 392.24 213.022C393.373 202.332 397.195 193.959 403.703 187.903C410.211 181.848 418.148 179.317 427.512 180.31ZM442.224 211.662C442.283 206.765 441.637 202.779 440.287 199.703C437.793 193.991 432.961 190.755 425.793 189.995C420.655 189.45 416.148 190.858 412.272 194.217C408.401 197.536 406.058 202.043 405.244 207.739L442.224 211.662ZM498.364 187.825C503.088 188.326 507.548 189.931 511.744 192.638C515.944 195.305 519.018 198.522 520.965 202.29C522.846 205.883 523.922 209.957 524.194 214.511C524.531 217.648 524.344 222.572 523.632 229.284L474.843 224.109C474.334 230.885 475.354 236.482 477.902 240.9C480.454 245.277 484.859 247.798 491.116 248.461C496.958 249.081 501.823 247.649 505.713 244.165C507.939 242.138 509.622 239.698 510.763 236.844L521.764 238.011C521.214 240.425 519.951 243.056 517.972 245.905C516.04 248.717 513.958 250.968 511.725 252.659C507.976 255.613 503.533 257.404 498.397 258.033C495.633 258.41 492.552 258.419 489.155 258.058C480.868 257.179 474.164 253.43 469.041 246.811C463.924 240.151 461.941 231.393 463.092 220.537C464.226 209.847 468.047 201.474 474.556 195.419C481.064 189.363 489 186.832 498.364 187.825ZM513.077 219.177C513.135 214.281 512.49 210.295 511.14 207.219C508.645 201.507 503.814 198.271 496.646 197.51C491.508 196.966 487.001 198.373 483.125 201.733C479.253 205.051 476.911 209.559 476.097 215.254L513.077 219.177ZM545.548 175.546L556.859 176.746L554.888 195.329L565.516 196.457L564.547 205.593L553.919 204.465L549.311 247.909C549.065 250.23 549.687 251.867 551.178 252.821C552 253.369 553.426 253.751 555.456 253.966C555.995 254.023 556.575 254.085 557.197 254.151C557.822 254.175 558.554 254.19 559.392 254.195L558.455 263.021C557.131 263.257 555.756 263.384 554.33 263.4C552.945 263.421 551.445 263.345 549.829 263.174C544.608 262.62 541.206 260.919 539.623 258.069C538.044 255.178 537.481 251.599 537.933 247.331L542.608 203.266L533.596 202.31L534.565 193.173L543.577 194.129L545.548 175.546Z" fill="#11318F"/>
<path d="M569.475 216.855L604.122 194.354C610.971 189.906 617.752 188.26 624.464 189.416C631.154 190.536 636.768 194.591 641.307 201.58C645.21 207.59 646.744 214.046 645.91 220.947C645.053 227.813 640.746 233.766 632.988 238.804L608.772 254.53L629.911 287.081L619.48 293.855L569.475 216.855ZM630.805 208.475C627.129 202.814 622.536 200.331 617.026 201.028C614.016 201.442 610.502 202.954 606.483 205.564L585.726 219.044L603.053 245.724L623.81 232.244C628.493 229.203 631.637 225.745 633.244 221.87C634.886 217.972 634.073 213.507 630.805 208.475ZM674.931 176.241C678.914 173.654 683.388 172.09 688.353 171.549C693.295 170.973 697.708 171.534 701.594 173.234C705.32 174.839 708.722 177.324 711.802 180.689C714.04 182.912 716.998 186.854 720.674 192.515L679.527 219.237C683.401 224.819 687.719 228.523 692.482 230.349C697.222 232.139 702.23 231.321 707.507 227.895C712.434 224.695 715.31 220.517 716.135 215.361C716.587 212.385 716.356 209.429 715.444 206.494L724.722 200.469C725.816 202.689 726.493 205.529 726.752 208.988C727.023 212.389 726.824 215.449 726.156 218.168C725.106 222.825 722.784 227.015 719.191 230.74C717.283 232.774 714.896 234.721 712.031 236.582C705.042 241.121 697.474 242.434 689.326 240.522C681.155 238.574 674.097 233.023 668.151 223.867C662.296 214.852 659.988 205.942 661.227 197.139C662.465 188.336 667.033 181.37 674.931 176.241ZM706.109 191.317C703.07 187.478 700.057 184.79 697.071 183.251C691.534 180.388 685.744 180.919 679.698 184.845C675.365 187.659 672.752 191.592 671.859 196.643C670.944 201.659 671.965 206.635 674.922 211.571L706.109 191.317ZM712.387 153.705L721.35 147.884L727.647 157.581C727.156 155.217 727.469 151.76 728.587 147.208C729.682 142.622 732.1 139.114 735.839 136.686C736.013 136.573 736.322 136.397 736.764 136.16C737.206 135.922 737.967 135.527 739.049 134.974L745.517 144.933C744.889 145.191 744.32 145.462 743.808 145.744C743.331 146.005 742.813 146.316 742.254 146.679C737.501 149.766 734.848 153.675 734.294 158.406C733.718 163.103 734.723 167.443 737.31 171.427L758.279 203.716L748.844 209.843L712.387 153.705ZM744.683 120.584C742.281 116.579 741.101 113.271 741.144 110.66C741.258 106.015 744.46 101.65 750.75 97.5656C751.344 97.1798 751.967 96.8002 752.619 96.4266C753.27 96.0531 754.021 95.6403 754.87 95.1882L760.452 103.785C759.429 104.35 758.689 104.78 758.235 105.075C757.793 105.313 757.38 105.556 756.996 105.806C754.13 107.667 752.906 109.53 753.323 111.396C753.717 113.227 755.888 117.182 759.837 123.262L769.167 117.203L774.001 124.646L764.566 130.774L796.019 179.206L786.689 185.266L755.235 136.833L747.425 141.905L742.592 134.462L750.402 129.39L744.683 120.584ZM800.311 94.8162C804.295 92.2291 808.769 90.665 813.733 90.1237C818.675 89.5476 823.089 90.1092 826.975 91.8086C830.7 93.4136 834.102 95.8989 837.182 99.2644C839.421 101.487 842.378 105.429 846.055 111.09L804.908 137.812C808.781 143.394 813.1 147.098 817.862 148.924C822.602 150.714 827.611 149.896 832.887 146.47C837.814 143.27 840.69 139.092 841.515 133.936C841.967 130.96 841.737 128.004 840.824 125.069L850.102 119.044C851.196 121.264 851.873 124.104 852.132 127.563C852.403 130.964 852.204 134.024 851.536 136.743C850.486 141.4 848.165 145.59 844.572 149.315C842.663 151.349 840.277 153.296 837.411 155.157C830.422 159.696 822.854 161.009 814.706 159.097C806.536 157.149 799.477 151.598 793.532 142.442C787.677 133.427 785.368 124.517 786.607 115.714C787.846 106.911 792.413 99.945 800.311 94.8162ZM831.49 109.892C828.45 106.053 825.437 103.365 822.451 101.826C816.915 98.9627 811.124 99.494 805.079 103.42C800.746 106.234 798.133 110.167 797.24 115.218C796.324 120.234 797.345 125.21 800.302 130.146L831.49 109.892ZM858.098 56.7664C864.423 52.6588 870.558 50.8604 876.504 51.3711C882.484 51.8591 888.316 55.5987 893.999 62.5898L884.826 68.5469C882.02 65.4505 878.884 63.4134 875.417 62.4355C871.928 61.4227 867.981 62.346 863.578 65.2054C857.568 69.1088 855.176 74.8354 856.403 82.3854C857.199 87.2836 859.412 92.5283 863.043 98.1194C866.697 103.745 870.96 107.709 875.833 110.01C880.705 112.31 885.693 111.804 890.794 108.491C894.708 105.949 897.029 102.752 897.757 98.9011C898.498 94.9922 897.955 90.6749 896.128 85.9491L905.301 79.992C909.086 88.116 910.005 95.2693 908.059 101.452C906.089 107.6 901.837 112.796 895.303 117.039C887.965 121.805 880.375 122.933 872.535 120.423C864.672 117.878 858.131 112.588 852.911 104.55C846.512 94.696 843.924 85.4712 845.149 76.8759C846.373 68.2806 850.689 61.5775 858.098 56.7664ZM882.888 20.6945L892.428 14.4991L902.606 30.1717L911.569 24.3507L916.573 32.056L907.61 37.8769L931.405 74.516C932.675 76.4729 934.19 77.3522 935.949 77.1537C936.933 77.0616 938.281 76.4595 939.993 75.3475C940.447 75.0525 940.937 74.7348 941.461 74.3944C941.962 74.019 942.54 73.5694 943.193 73.0457L948.027 80.4888C947.148 81.5068 946.16 82.4715 945.062 83.3829C944 84.2715 942.787 85.1584 941.425 86.0435C937.022 88.9029 933.308 89.725 930.283 88.5097C927.235 87.2596 924.543 84.8349 922.205 81.2356L898.07 44.0723L890.47 49.0082L885.466 41.3029L893.066 36.3671L882.888 20.6945Z" fill="#11318F"/>
<path d="M868.219 256.764C872.415 257.087 875.897 256.915 878.664 256.25C883.608 255 887.794 252.187 891.222 247.812C893.957 244.303 896.087 239.702 897.61 234.011C898.498 230.61 899.056 227.435 899.282 224.486C900.153 213.144 898.566 204.163 894.519 197.542C890.514 190.924 883.505 187.231 873.493 186.462L851.496 184.772L846.097 255.065L868.219 256.764ZM839.851 173.159L876.929 176.007C889.517 176.973 898.937 182.189 905.189 191.654C910.76 200.189 913.062 210.751 912.095 223.339C911.349 233.06 908.846 241.706 904.587 249.277C897.082 262.658 885.477 268.746 869.774 267.54L832.82 264.702L839.851 173.159ZM928.094 205.198L939.498 206.074L934.396 272.503L922.992 271.627L928.094 205.198ZM930.023 180.084L941.427 180.96L940.45 193.673L929.046 192.797L930.023 180.084ZM959.684 253.383C959.729 257.148 960.444 260.086 961.828 262.199C964.375 266.03 969.139 268.214 976.118 268.75C980.273 269.069 983.997 268.456 987.292 266.912C990.59 265.327 992.384 262.644 992.674 258.863C992.894 255.997 991.795 253.718 989.375 252.028C987.825 250.99 984.708 249.685 980.023 248.113L971.284 245.185C965.701 243.335 961.626 241.435 959.059 239.482C954.473 236.079 952.386 231.698 952.797 226.339C953.282 220.024 955.939 215.088 960.767 211.531C965.637 207.977 971.915 206.495 979.601 207.085C989.654 207.857 996.677 211.364 1000.67 217.604C1003.17 221.557 1004.21 225.691 1003.79 230.005L993.198 229.191C993.185 226.641 992.468 224.267 991.049 222.068C988.7 218.921 984.347 217.103 977.991 216.615C973.754 216.289 970.472 216.852 968.145 218.303C965.861 219.758 964.616 221.814 964.412 224.473C964.189 227.381 965.443 229.818 968.176 231.783C969.758 232.949 972.139 234.051 975.319 235.089L982.595 237.466C990.505 240.038 995.761 242.343 998.362 244.381C1002.5 247.583 1004.34 252.258 1003.87 258.407C1003.41 264.347 1000.75 269.304 995.892 273.277C991.074 277.253 984.053 278.887 974.83 278.179C964.901 277.416 958.031 274.632 954.222 269.826C950.457 264.982 948.684 259.225 948.904 252.555L959.684 253.383ZM1022.27 186.856L1033.49 187.718L1030.87 221.867C1033.79 218.706 1036.36 216.522 1038.58 215.313C1042.38 213.223 1046.98 212.385 1052.38 212.8C1062.06 213.543 1068.36 217.433 1071.29 224.47C1072.87 228.311 1073.41 233.513 1072.91 240.077L1069.62 282.889L1058.09 282.003L1061.32 239.94C1061.7 235.037 1061.35 231.396 1060.28 229.015C1058.53 225.203 1054.85 223.082 1049.24 222.651C1044.59 222.294 1040.25 223.569 1036.22 226.478C1032.19 229.386 1029.84 235.286 1029.16 244.176L1026.44 279.572L1015.22 278.711L1022.27 186.856ZM1119.29 218.065C1124.03 218.428 1128.54 219.903 1132.81 222.487C1137.08 225.031 1140.25 228.157 1142.31 231.867C1144.29 235.405 1145.48 239.445 1145.89 243.99C1146.32 247.115 1146.27 252.043 1145.76 258.773L1096.84 255.016C1096.52 261.804 1097.71 267.369 1100.38 271.711C1103.06 276.012 1107.54 278.404 1113.81 278.886C1119.67 279.336 1124.49 277.763 1128.28 274.167C1130.44 272.077 1132.05 269.589 1133.11 266.703L1144.14 267.55C1143.66 269.979 1142.48 272.646 1140.58 275.551C1138.73 278.418 1136.71 280.728 1134.53 282.483C1130.87 285.545 1126.48 287.465 1121.36 288.242C1118.61 288.699 1115.53 288.797 1112.13 288.535C1103.82 287.897 1097.01 284.344 1091.7 277.877C1086.39 271.368 1084.15 262.671 1084.99 251.786C1085.81 241.068 1089.39 232.588 1095.72 226.346C1102.05 220.104 1109.91 217.344 1119.29 218.065ZM1134.91 248.976C1134.83 244.08 1134.07 240.115 1132.63 237.079C1129.97 231.442 1125.05 228.348 1117.86 227.796C1112.71 227.4 1108.24 228.938 1104.47 232.409C1100.69 235.838 1098.48 240.411 1097.83 246.129L1134.91 248.976ZM1165.58 269.196C1165.62 272.961 1166.34 275.899 1167.72 278.012C1170.27 281.843 1175.03 284.027 1182.01 284.563C1186.17 284.882 1189.89 284.269 1193.19 282.725C1196.48 281.14 1198.28 278.457 1198.57 274.676C1198.79 271.81 1197.69 269.531 1195.27 267.841C1193.72 266.803 1190.6 265.498 1185.92 263.926L1177.18 260.998C1171.59 259.148 1167.52 257.248 1164.95 255.295C1160.37 251.892 1158.28 247.511 1158.69 242.152C1159.18 235.837 1161.83 230.901 1166.66 227.344C1171.53 223.79 1177.81 222.308 1185.49 222.898C1195.55 223.67 1202.57 227.177 1206.56 233.417C1209.06 237.37 1210.1 241.504 1209.69 245.818L1199.09 245.004C1199.08 242.454 1198.36 240.08 1196.94 237.881C1194.59 234.734 1190.24 232.916 1183.88 232.428C1179.65 232.102 1176.37 232.665 1174.04 234.116C1171.75 235.571 1170.51 237.627 1170.31 240.286C1170.08 243.194 1171.34 245.631 1174.07 247.596C1175.65 248.762 1178.03 249.864 1181.21 250.902L1188.49 253.279C1196.4 255.851 1201.65 258.156 1204.26 260.194C1208.4 263.396 1210.23 268.071 1209.76 274.22C1209.3 280.16 1206.65 285.117 1201.79 289.09C1196.97 293.066 1189.95 294.7 1180.72 293.992C1170.79 293.229 1163.93 290.445 1160.12 285.639C1156.35 280.795 1154.58 275.038 1154.8 268.368L1165.58 269.196ZM1234.69 203.483L1247.34 204.455L1245.03 234.554L1238.93 273.952L1232.57 273.464L1232.38 233.582L1234.69 203.483ZM1228.65 282.064L1241.05 283.017L1240.06 295.979L1227.66 295.026L1228.65 282.064Z" fill="#11318F"/>
</g>
<defs>
<clipPath id="clip0_70_7">
<rect width="1262" height="314" fill="white"/>
</clipPath>
</defs>
</svg>
